{"title":"WWE Friday Night Smackdown 2013 10 04 HDTV x264-GTS","uid":8997892,"size":529439031,"categoryP":"video","categoryS":"hd___tv_shows","magnet":"?xt=urn:btih:2fbbf519ad52e46d8cabc62b45374f84a80592de&amp;dn=WWE+Friday+Night+Smackdown+2013+10+04+HDTV+x264-GTS&amp;tr=udp%3A%2F%2Ftracker.openbittorrent.com%3A80&amp;tr=udp%3A%2F%2Fopen.demonii.com%3A1337&amp;tr=udp%3A%2F%2Ftracker.coppersurfer.tk%3A6969&amp;tr=udp%3A%2F%2Fexodus.desync.com%3A6969","seeders":1,"leechers":0,"uploader":"RDS31","files":1,"time":1380903695,"description":"Release Date.USA : 10/04/13\nFormat : MP4\nFile size : 505 MiB\nDuration : 1h 28mn\nOverall bit rate : 800 Kbps\nSource : SyfyHD\nTagging application : Yet Another Metadata Injector for FLV - Version 1.9\n\n\n\n\nVideo\nFormat : AVC\nFormat/Info : Advanced Video Codec\nFormat profile : &lt;a class=&quot;__cf_email__&quot; href=&quot;/cdn-cgi/l/email-protection&quot; data-cfemail=&quot;256d4c424d6569160b15&quot;&gt;[email&amp;#160;protected]&lt;/a&gt;&lt;script cf-hash='f9e31' type=&quot;text/javascript&quot;&gt;\n/* &lt;![CDATA[ */!function(){try{var t=&quot;currentScript&quot;in document?document.currentScript:function(){for(var t=document.getElementsByTagName(&quot;script&quot;),e=t.length;e--;)if(t[e].getAttribute(&quot;cf-hash&quot;))return t[e]}();if(t&amp;&amp;t.previousSibling){var e,r,n,i,c=t.previousSibling,a=c.getAttribute(&quot;data-cfemail&quot;);if(a){for(e=&quot;&quot;,r=parseInt(a.substr(0,2),16),n=2;a.length-n;n+=2)i=parseInt(a.substr(n,2),16)^r,e+=String.fromCharCode(i);e=document.createTextNode(e),c.parentNode.replaceChild(e,c)}}}catch(u){}}();/* ]]&gt; */&lt;/script&gt;\nFormat settings, CABAC : Yes\nFormat settings, ReFrames : 4 frames\nCodec ID : 7\nDuration : 1h 28mn\nBit rate : 700 Kbps\nWidth : 720 pixels\nHeight : 400 pixels\nDisplay aspect ratio : 16:9\nFrame rate mode : Constant\nFrame rate : 25.000 fps\nColor space : YUV\nChroma subsampling : 4:2:0\nBit depth : 8 bits\nScan type : Progressive\nBits/(Pixel*Frame) : 0.097\nStream size : 440 MiB (87%)\nWriting library : x264 core 128 r2 198a7ea\n\n\n\n\nAudio\nFormat : AAC\nFormat/Info : Advanced Audio Codec\nFormat profile : LC\nCodec ID : 10\nDuration : 1h 28mn\nBit rate : 94.4 Kbps\nChannel(s) : 2 channels\nChannel positions : Front: L R\nSampling rate : 44.1 KHz\nCompression mode : Lossy\nDelay relative to video : 78ms\nStream size : 63.4 MiB (13%","torrent":{"xt":"urn:btih:2fbbf519ad52e46d8cabc62b45374f84a80592de","amp;dn":"WWE+Friday+Night+Smackdown+2013+10+04+HDTV+x264-GTS","amp;tr":["udp%3A%2F%2Ftracker.openbittorrent.com%3A80","udp%3A%2F%2Fopen.demonii.com%3A1337","udp%3A%2F%2Ftracker.coppersurfer.tk%3A6969","udp%3A%2F%2Fexodus.desync.com%3A6969"],"infoHash":"2fbbf519ad52e46d8cabc62b45374f84a80592de","infoHashBuffer":{"type":"Buffer","data":[47,187,245,25,173,82,228,109,140,171,198,43,69,55,79,132,168,5,146,222]},"announce":[],"urlList":[]}}